<svg width="73" height="60" viewBox="0 0 73 60" fill="none" xmlns="http://www.w3.org/2000/svg">
<path d="M36.5 11.25V48.75C38.8966 48.75 41.2699 48.265 43.4841 47.3228C45.6981 46.3805 47.7101 44.9994 49.4048 43.2584C51.0994 41.5172 52.4437 39.4501 53.3608 37.1754C54.2779 34.9005 54.75 32.4622 54.75 30C54.75 27.5378 54.2779 25.0995 53.3608 22.8247C52.4437 20.5499 51.0994 18.4828 49.4048 16.7418C47.7101 15.0006 45.6981 13.6195 43.4841 12.6772C41.2699 11.735 38.8966 11.25 36.5 11.25ZM0 30L18.2502 48.75L36.5003 30L18.2502 11.25L0 30ZM54.75 30C54.75 32.4622 55.222 34.9005 56.1392 37.1754C57.0562 39.4504 58.4006 41.5172 60.0952 43.2584C61.7899 44.9994 63.8017 46.3806 66.016 47.3228C68.2301 48.2651 70.6034 48.75 73 48.75V11.25C68.1598 11.25 63.5179 13.2255 60.0952 16.7418C56.6728 20.2581 54.75 25.0271 54.75 30Z" fill="black"/>
</svg>
